<svg width="36" height="36" viewBox="0 0 36 36" fill="none" xmlns="http://www.w3.org/2000/svg">
<circle cx="18" cy="18" r="18" fill="black"/>
<path d="M10.14 13.16H5.6V12H16.12V13.16H11.58V26H10.14V13.16ZM18.6188 12H23.5988C25.0654 12 26.2254 12.2267 27.0788 12.68C27.9454 13.1333 28.5721 13.8667 28.9588 14.88C29.3454 15.8933 29.5388 17.2667 29.5388 19C29.5388 20.7467 29.3454 22.1267 28.9588 23.14C28.5854 24.14 27.9654 24.8667 27.0988 25.32C26.2454 25.7733 25.0788 26 23.5988 26H18.6188V12ZM23.5988 24.84C24.7054 24.84 25.5854 24.6533 26.2388 24.28C26.8921 23.8933 27.3654 23.28 27.6588 22.44C27.9521 21.5867 28.0988 20.4467 28.0988 19.02C28.0988 17.5933 27.9454 16.4533 27.6388 15.6C27.3454 14.7467 26.8721 14.1267 26.2188 13.74C25.5654 13.3533 24.6921 13.16 23.5988 13.16H20.0588V24.84H23.5988Z" fill="white"/>
</svg>
